{"title":"Prey S02E03 x264 RB58.mp4","uid":13082635,"size":525835416,"categoryP":"video","categoryS":"tv_shows","magnet":"?xt=urn:btih:0360c2567f56ed2dc610edc6d7ccfb1a6bac71bc&amp;dn=Prey+S02E03+x264+RB58.mp4&amp;tr=udp%3A%2F%2Ftracker.leechers-paradise.org%3A6969&amp;tr=udp%3A%2F%2Fzer0day.ch%3A1337&amp;tr=udp%3A%2F%2Fopen.demonii.com%3A1337&amp;tr=udp%3A%2F%2Ftracker.coppersurfer.tk%3A6969&amp;tr=udp%3A%2F%2Fexodus.desync.com%3A6969","seeders":1,"leechers":0,"uploader":"RedBaron58","files":1,"time":1450919241,"description":"Prey S02E03 x264 mp4\r\n \nhttp://www.imdb.com/title/tt3315020/\r\n\r\n\r\n\r\nPlease be patient My intial upload speed is limited.\r\nThank you for your kind comments and feedback on my other torrents, your feedback is welcome.\r\n\r\n\r\nAbout the Episode:\r\nAs Murdoch continues with the search for his daughter, he is forced into one last extraordinary \r\nmission before Lucy can be freed. But, as a wanted man, it is a near-impossible task, \r\nand he must fight to get her to safety before the relentless Reinhardt catches her prey. \r\nConcluding instalment of the thriller, following the story of a prison officer who is forced \r\non the run with a young female prisoner when his daughter is kidnapped.\r\n \r\nStarring Philip Glenister, Rosie Cavaliero and MyAnna Buring\r\n\r\n\r\nI hope you enjoy.\r\n\r\n\r\nTechnical:\r\n\r\nGeneral\r\nComplete name                            : G:Prey S02E03 x264 RB58.mp4\r\nFormat                                   : MPEG-4\r\nFormat profile                           : Base Media\r\nCodec ID                                 : isom\r\nFile size                                : 501 MiB\r\nDuration                                 : 46mn 6s\r\nOverall bit rate                         : 1 521 Kbps\r\nWriting application                      : Lavf54.63.104\r\n\r\nVideo\r\nID                                       : 1\r\nFormat                                   : AVC\r\nFormat/Info                              : Advanced Video Codec\r\nFormat profile                           :   \r\nFormat settings, CABAC                   : Yes\r\nFormat settings, ReFrames                : 4 frames\r\nCodec ID                                 : avc1\r\nCodec ID/Info                            : Advanced Video Coding\r\nDuration                                 : 46mn 6s\r\nBit rate                                 : 1 400 Kbps\r\nWidth                                    : 832 pixels\r\nHeight                                   : 468 pixels\r\nDisplay aspect ratio                     : 16:9\r\nFrame rate mode                          : Constant\r\nFrame rate                               : 25.000 fps\r\nColor space                              : YUV\r\nChroma subsampling                       : 4:2:0\r\nBit depth                                : 8 bits\r\nScan type                                : Progressive\r\nBits/(Pixel*Frame)                       : 0.144\r\nStream size                              : 462 MiB (92%)\r\nWriting library                          : x264 core 123 r2189 35cf912\r\nEncoding settings                        : cabac=1 / ref=3 / deblock=1:0:0\r\n\r\nAudio\r\nID                                       : 2\r\nFormat                                   : AAC\r\nFormat/Info                              : Advanced Audio Codec\r\nFormat profile                           : LC\r\nCodec ID                                 : 40\r\nDuration                                 : 46mn 6s\r\nBit rate mode                            : Constant\r\nBit rate                                 : 112 Kbps\r\nChannel(s)                               : 2 channels\r\nChannel positions                        : Front: L R\r\nSampling rate                            : 48.0 KHz\r\nCompression mode                         : Lossy\r\nStream size                              : 37.0 MiB (7%)","torrent":{"xt":"urn:btih:0360c2567f56ed2dc610edc6d7ccfb1a6bac71bc","amp;dn":"Prey+S02E03+x264+RB58.mp4","amp;tr":["udp%3A%2F%2Ftracker.leechers-paradise.org%3A6969","udp%3A%2F%2Fzer0day.ch%3A1337","udp%3A%2F%2Fopen.demonii.com%3A1337","udp%3A%2F%2Ftracker.coppersurfer.tk%3A6969","udp%3A%2F%2Fexodus.desync.com%3A6969"],"infoHash":"0360c2567f56ed2dc610edc6d7ccfb1a6bac71bc","infoHashBuffer":{"type":"Buffer","data":[3,96,194,86,127,86,237,45,198,16,237,198,215,204,251,26,107,172,113,188]},"announce":[],"urlList":[]}}